<svg width="24" height="24" viewBox="0 0 24 24" fill="none" xmlns="http://www.w3.org/2000/svg">
<path d="M4 4L20 20" stroke="#14181F" stroke-width="2" stroke-linecap="round" stroke-linejoin="round"/>
<path d="M10.8572 5.76588C11.2304 5.72237 11.6116 5.70001 12 5.70001C16.1976 5.70001 19.5599 8.31239 21 12C20.6449 12.9094 20.1728 13.7534 19.6002 14.5089M7.06766 7.0675C5.23159 8.18766 3.811 9.92334 3 12C4.44012 15.6876 7.80243 18.3 12 18.3C13.8338 18.3 15.5082 17.8014 16.9325 16.9324M10.0909 10.0907C9.60224 10.5794 9.3 11.2544 9.3 12C9.3 13.4912 10.5088 14.7 12 14.7C12.7456 14.7 13.4207 14.3978 13.9093 13.9091" stroke="#14181F" stroke-width="2" stroke-linecap="round" stroke-linejoin="round"/>
<path d="M4.7998 4.79999L19.1998 19.2" stroke="#14181F" stroke-width="2" stroke-linecap="round"/>
</svg>
