<svg width="151" height="43" viewBox="0 0 151 43" fill="none" xmlns="http://www.w3.org/2000/svg">
<path d="M9.36362 32.892H19.6116V36H5.54162V6.726H9.36362V32.892ZM44.6705 23.61C44.6705 24.338 44.6285 25.108 44.5445 25.92H26.1485C26.2885 28.188 27.0585 29.966 28.4585 31.254C29.8865 32.514 31.6085 33.144 33.6245 33.144C35.2765 33.144 36.6485 32.766 37.7405 32.01C38.8605 31.226 39.6445 30.19 40.0925 28.902H44.2085C43.5925 31.114 42.3605 32.92 40.5125 34.32C38.6645 35.692 36.3685 36.378 33.6245 36.378C31.4405 36.378 29.4805 35.888 27.7445 34.908C26.0365 33.928 24.6925 32.542 23.7125 30.75C22.7325 28.93 22.2425 26.83 22.2425 24.45C22.2425 22.07 22.7185 19.984 23.6705 18.192C24.6225 16.4 25.9525 15.028 27.6605 14.076C29.3965 13.096 31.3845 12.606 33.6245 12.606C35.8085 12.606 37.7405 13.082 39.4205 14.034C41.1005 14.986 42.3885 16.302 43.2845 17.982C44.2085 19.634 44.6705 21.51 44.6705 23.61ZM40.7225 22.812C40.7225 21.356 40.4005 20.11 39.7565 19.074C39.1125 18.01 38.2305 17.212 37.1105 16.68C36.0185 16.12 34.8005 15.84 33.4565 15.84C31.5245 15.84 29.8725 16.456 28.5005 17.688C27.1565 18.92 26.3865 20.628 26.1905 22.812H40.7225ZM61.7274 36L56.2674 27.432L51.0174 36H47.0274L54.4614 24.576L47.0274 12.984H51.3534L56.8134 21.51L62.0214 12.984H66.0114L58.6194 24.366L66.0534 36H61.7274ZM81.2371 12.564C82.9731 12.564 84.5411 12.942 85.9411 13.698C87.3411 14.426 88.4331 15.532 89.2171 17.016C90.0291 18.5 90.4351 20.306 90.4351 22.434V36H86.6551V22.98C86.6551 20.684 86.0811 18.934 84.9331 17.73C83.7851 16.498 82.2171 15.882 80.2291 15.882C78.2131 15.882 76.6031 16.512 75.3991 17.772C74.2231 19.032 73.6351 20.866 73.6351 23.274V36H69.8131V4.92H73.6351V16.26C74.3911 15.084 75.4271 14.174 76.7431 13.53C78.0871 12.886 79.5851 12.564 81.2371 12.564ZM117.09 12.984V36H113.268V32.598C112.54 33.774 111.518 34.698 110.202 35.37C108.914 36.014 107.486 36.336 105.918 36.336C104.126 36.336 102.516 35.972 101.088 35.244C99.6603 34.488 98.5263 33.368 97.6863 31.884C96.8743 30.4 96.4683 28.594 96.4683 26.466V12.984H100.248V25.962C100.248 28.23 100.822 29.98 101.97 31.212C103.118 32.416 104.686 33.018 106.674 33.018C108.718 33.018 110.328 32.388 111.504 31.128C112.68 29.868 113.268 28.034 113.268 25.626V12.984H117.09ZM127.366 17.268C128.15 15.896 129.298 14.776 130.81 13.908C132.322 13.04 134.044 12.606 135.976 12.606C138.048 12.606 139.91 13.096 141.562 14.076C143.214 15.056 144.516 16.442 145.468 18.234C146.42 19.998 146.896 22.056 146.896 24.408C146.896 26.732 146.42 28.804 145.468 30.624C144.516 32.444 143.2 33.858 141.52 34.866C139.868 35.874 138.02 36.378 135.976 36.378C133.988 36.378 132.238 35.944 130.726 35.076C129.242 34.208 128.122 33.102 127.366 31.758V36H123.544V4.92H127.366V17.268ZM142.99 24.408C142.99 22.672 142.64 21.16 141.94 19.872C141.24 18.584 140.288 17.604 139.084 16.932C137.908 16.26 136.606 15.924 135.178 15.924C133.778 15.924 132.476 16.274 131.272 16.974C130.096 17.646 129.144 18.64 128.416 19.956C127.716 21.244 127.366 22.742 127.366 24.45C127.366 26.186 127.716 27.712 128.416 29.028C129.144 30.316 130.096 31.31 131.272 32.01C132.476 32.682 133.778 33.018 135.178 33.018C136.606 33.018 137.908 32.682 139.084 32.01C140.288 31.31 141.24 30.316 141.94 29.028C142.64 27.712 142.99 26.172 142.99 24.408Z" fill="#6a3fa6"/>
</svg>
